<svg width="333" height="204" viewBox="0 0 333 204" fill="none" xmlns="http://www.w3.org/2000/svg">
<path d="M155.889 86.806L131.762 97.1924L153.984 113.418L180.016 98.6088L155.889 86.806Z" fill="#11100D"/>
<path d="M226.683 48.1552L211.762 60.194V81.7371L230.175 66.5302L226.683 48.1552Z" fill="#11100D"/>
<path d="M153.984 75.4009L120.333 89.3405L123.508 100.746L131.762 97.1924L155.889 86.806L180.016 98.6088L188.27 102.647L211.762 89.3405V81.7371V60.194L226.683 48.1552L241.603 36.1164L237.794 29.7802L202.238 55.125V84.9052L188.27 92.5086L153.984 75.4009Z" fill="#C28709"/>
<path d="M153.142 45.623C152.551 45.9743 152.347 46.7319 152.684 47.3312L160.325 60.949C160.677 61.5751 161.478 61.7854 162.093 61.4127L191.824 43.3779C192.57 42.9252 192.646 41.8731 191.973 41.318L179.436 30.9823C179.022 30.6413 178.438 30.5965 177.977 30.8704L153.142 45.623Z" fill="#445FB5"/>
<path d="M128.587 60.194L133.667 76.6681L155.889 64.6293L147 49.4224L128.587 60.194Z" fill="#445FB5"/>
<path d="M91.7619 101.379L144.46 146.366H86.0476L99.381 137.496L67 124.823H101.286L91.7619 101.379Z" fill="black"/>
<path d="M213.032 32.5523L189.54 9.50431L141.921 5.70259L141.286 9.50431L187.635 13.306L209.222 34.2155L213.032 32.5523Z" fill="black"/>
<path fill-rule="evenodd" clip-rule="evenodd" d="M111.444 62.0948L180.016 23.444L198.429 38.0172L209.222 34.2155L213.032 32.5523L233.984 24.7112L237.794 29.7802L202.238 55.125V84.9052L188.27 92.5086L153.984 75.4009L120.333 89.3405L111.444 62.0948ZM153.142 45.623C152.551 45.9743 152.347 46.7319 152.684 47.3312L160.325 60.949C160.677 61.5751 161.478 61.7854 162.093 61.4127L191.824 43.3779C192.57 42.9252 192.646 41.8731 191.973 41.318L179.436 30.9823C179.022 30.6413 178.438 30.5965 177.977 30.8704L153.142 45.623ZM133.667 76.6681L128.587 60.194L147 49.4224L155.889 64.6293L133.667 76.6681ZM173.667 64.6293L172.397 62.0948L165.413 66.5302L166.683 69.0647L173.667 64.6293Z" fill="#F9AE0C"/>
<path d="M172.397 62.0948L173.667 64.6293L166.683 69.0647L165.413 66.5302L172.397 62.0948Z" fill="#DEDEDE"/>
<path d="M267 76.0345C267 90.032 255.629 101.379 241.603 101.379C227.577 101.379 216.206 90.032 216.206 76.0345C216.206 62.0369 227.577 50.6897 241.603 50.6897C255.629 50.6897 267 62.0369 267 76.0345Z" fill="black"/>
<path d="M256.841 76.0345C256.841 84.433 250.019 91.2414 241.603 91.2414C233.187 91.2414 226.365 84.433 226.365 76.0345C226.365 67.6359 233.187 60.8276 241.603 60.8276C250.019 60.8276 256.841 67.6359 256.841 76.0345Z" fill="#F9AE0C"/>
<path d="M249.222 76.0345C249.222 80.2337 245.811 83.6379 241.603 83.6379C237.395 83.6379 233.984 80.2337 233.984 76.0345C233.984 71.8352 237.395 68.431 241.603 68.431C245.811 68.431 249.222 71.8352 249.222 76.0345Z" fill="black"/>
<path d="M185.73 121.655C185.73 135.653 174.36 147 160.333 147C146.307 147 134.937 135.653 134.937 121.655C134.937 107.658 146.307 96.3103 160.333 96.3103C174.36 96.3103 185.73 107.658 185.73 121.655Z" fill="black"/>
<path d="M175.571 121.655C175.571 130.054 168.749 136.862 160.333 136.862C151.918 136.862 145.095 130.054 145.095 121.655C145.095 113.257 151.918 106.448 160.333 106.448C168.749 106.448 175.571 113.257 175.571 121.655Z" fill="#F9AE0C"/>
<path d="M167.952 121.655C167.952 125.854 164.541 129.259 160.333 129.259C156.125 129.259 152.714 125.854 152.714 121.655C152.714 117.456 156.125 114.052 160.333 114.052C164.541 114.052 167.952 117.456 167.952 121.655Z" fill="black"/>
<path d="M142.556 6.33621C142.556 9.8356 139.713 12.6724 136.206 12.6724C132.7 12.6724 129.857 9.8356 129.857 6.33621C129.857 2.83682 132.7 0 136.206 0C139.713 0 142.556 2.83682 142.556 6.33621Z" fill="black"/>
<path d="M2.52841 195V165.909H14.0057C16.2027 165.909 18.0777 166.302 19.6307 167.088C21.1932 167.865 22.3816 168.968 23.196 170.398C24.0199 171.818 24.4318 173.49 24.4318 175.412C24.4318 177.344 24.0152 179.006 23.1818 180.398C22.3485 181.78 21.1411 182.841 19.5597 183.58C17.9877 184.318 16.0843 184.688 13.8494 184.688H6.16477V179.744H12.8551C14.0294 179.744 15.0047 179.583 15.7812 179.261C16.5578 178.939 17.1354 178.456 17.5142 177.812C17.9025 177.169 18.0966 176.368 18.0966 175.412C18.0966 174.446 17.9025 173.632 17.5142 172.969C17.1354 172.306 16.553 171.804 15.767 171.463C14.9905 171.113 14.0104 170.938 12.8267 170.938H8.67898V195H2.52841ZM18.2386 181.761L25.4688 195H18.679L11.6051 181.761H18.2386ZM28.7784 195V165.909H48.3807V170.98H34.929V177.912H47.3722V182.983H34.929V189.929H48.4375V195H28.7784ZM53.2706 165.909H60.8558L68.8672 185.455H69.2081L77.2195 165.909H84.8047V195H78.8388V176.065H78.5973L71.0689 194.858H67.0064L59.478 175.994H59.2365V195H53.2706V165.909ZM116.605 180.455C116.605 183.627 116.004 186.326 114.801 188.551C113.608 190.777 111.979 192.476 109.915 193.651C107.86 194.815 105.549 195.398 102.983 195.398C100.398 195.398 98.0777 194.811 96.0227 193.636C93.9678 192.462 92.3438 190.762 91.1506 188.537C89.9574 186.312 89.3608 183.617 89.3608 180.455C89.3608 177.282 89.9574 174.583 91.1506 172.358C92.3438 170.133 93.9678 168.437 96.0227 167.273C98.0777 166.098 100.398 165.511 102.983 165.511C105.549 165.511 107.86 166.098 109.915 167.273C111.979 168.437 113.608 170.133 114.801 172.358C116.004 174.583 116.605 177.282 116.605 180.455ZM110.369 180.455C110.369 178.4 110.062 176.667 109.446 175.256C108.84 173.845 107.983 172.775 106.875 172.045C105.767 171.316 104.47 170.952 102.983 170.952C101.496 170.952 100.199 171.316 99.0909 172.045C97.983 172.775 97.1212 173.845 96.5057 175.256C95.8996 176.667 95.5966 178.4 95.5966 180.455C95.5966 182.509 95.8996 184.242 96.5057 185.653C97.1212 187.064 97.983 188.134 99.0909 188.864C100.199 189.593 101.496 189.957 102.983 189.957C104.47 189.957 105.767 189.593 106.875 188.864C107.983 188.134 108.84 187.064 109.446 185.653C110.062 184.242 110.369 182.509 110.369 180.455ZM118.725 170.98V165.909H142.617V170.98H133.711V195H127.631V170.98H118.725ZM146.552 195V165.909H166.154V170.98H152.702V177.912H165.146V182.983H152.702V189.929H166.211V195H146.552ZM196.083 174.276C195.969 173.13 195.482 172.24 194.62 171.605C193.758 170.971 192.589 170.653 191.112 170.653C190.108 170.653 189.26 170.795 188.569 171.08C187.878 171.354 187.347 171.738 186.978 172.23C186.618 172.723 186.438 173.281 186.438 173.906C186.419 174.427 186.528 174.882 186.765 175.27C187.011 175.658 187.347 175.994 187.773 176.278C188.2 176.553 188.692 176.795 189.251 177.003C189.809 177.202 190.406 177.372 191.04 177.514L193.654 178.139C194.923 178.423 196.088 178.802 197.148 179.276C198.209 179.749 199.128 180.331 199.904 181.023C200.681 181.714 201.282 182.528 201.708 183.466C202.144 184.403 202.366 185.478 202.376 186.69C202.366 188.471 201.912 190.014 201.012 191.321C200.122 192.618 198.834 193.627 197.148 194.347C195.472 195.057 193.451 195.412 191.083 195.412C188.735 195.412 186.689 195.052 184.947 194.332C183.214 193.613 181.86 192.547 180.884 191.136C179.918 189.716 179.412 187.959 179.364 185.866H185.316C185.382 186.842 185.662 187.656 186.154 188.31C186.656 188.954 187.324 189.441 188.157 189.773C189 190.095 189.951 190.256 191.012 190.256C192.054 190.256 192.958 190.104 193.725 189.801C194.502 189.498 195.103 189.077 195.529 188.537C195.955 187.997 196.168 187.377 196.168 186.676C196.168 186.023 195.974 185.473 195.586 185.028C195.207 184.583 194.648 184.205 193.91 183.892C193.181 183.58 192.286 183.295 191.225 183.04L188.058 182.244C185.605 181.648 183.668 180.715 182.248 179.446C180.827 178.177 180.122 176.468 180.131 174.318C180.122 172.557 180.591 171.018 181.538 169.702C182.494 168.385 183.806 167.358 185.472 166.619C187.139 165.881 189.033 165.511 191.154 165.511C193.313 165.511 195.198 165.881 196.808 166.619C198.427 167.358 199.686 168.385 200.586 169.702C201.486 171.018 201.95 172.543 201.978 174.276H196.083ZM206.513 195V165.909H226.115V170.98H212.663V177.912H225.107V182.983H212.663V189.929H226.172V195H206.513ZM231.005 195V165.909H237.156V189.929H249.627V195H231.005ZM253.7 195V165.909H273.303V170.98H259.851V177.912H272.294V182.983H259.851V189.929H273.359V195H253.7ZM303.86 176.094H297.638C297.525 175.289 297.293 174.574 296.942 173.949C296.592 173.314 296.142 172.775 295.593 172.33C295.044 171.884 294.409 171.544 293.69 171.307C292.979 171.07 292.208 170.952 291.374 170.952C289.869 170.952 288.557 171.326 287.44 172.074C286.322 172.812 285.456 173.892 284.84 175.312C284.225 176.723 283.917 178.437 283.917 180.455C283.917 182.528 284.225 184.271 284.84 185.682C285.465 187.093 286.336 188.158 287.454 188.878C288.571 189.598 289.864 189.957 291.332 189.957C292.156 189.957 292.918 189.848 293.619 189.631C294.329 189.413 294.959 189.096 295.508 188.679C296.057 188.253 296.512 187.737 296.871 187.131C297.241 186.525 297.496 185.833 297.638 185.057L303.86 185.085C303.699 186.42 303.297 187.708 302.653 188.949C302.018 190.18 301.161 191.283 300.082 192.259C299.012 193.224 297.733 193.991 296.246 194.56C294.769 195.118 293.098 195.398 291.232 195.398C288.638 195.398 286.317 194.811 284.272 193.636C282.236 192.462 280.626 190.762 279.442 188.537C278.268 186.312 277.681 183.617 277.681 180.455C277.681 177.282 278.278 174.583 279.471 172.358C280.664 170.133 282.283 168.437 284.329 167.273C286.374 166.098 288.675 165.511 291.232 165.511C292.918 165.511 294.48 165.748 295.92 166.222C297.369 166.695 298.652 167.386 299.769 168.295C300.887 169.195 301.796 170.298 302.496 171.605C303.207 172.912 303.661 174.408 303.86 176.094ZM307.163 170.98V165.909H331.055V170.98H322.148V195H316.069V170.98H307.163Z" fill="black"/>
</svg>
